<svg height="512" viewBox="0 0 512 512" width="512" xmlns="http://www.w3.org/2000/svg" xmlns:xlink="http://www.w3.org/1999/xlink"><linearGradient id="linear-gradient" gradientUnits="userSpaceOnUse" x1="74.98" x2="437.02" y1="74.98" y2="437.02"><stop offset="0" stop-color="#ff6432"/><stop offset="1" stop-color="#f44336"/></linearGradient><linearGradient id="linear-gradient-2" gradientUnits="userSpaceOnUse" x1="181.77" x2="430.75" y1="194.31" y2="443.29"><stop offset="0" stop-color="#b33128"/><stop offset=".93" stop-color="#b33128" stop-opacity="0"/></linearGradient><g id="Layer_2" data-name="Layer 2"><g id="power"><circle id="background" cx="256" cy="256" fill="url(#linear-gradient)" r="256"/><path d="m498.36 338.63a256.51 256.51 0 0 1 -179.06 165.48l-161.24-161.24c-34.52-101.71 48.94-173.52 48.94-173.52l40.7 40.7 19.7-86.81 57.75 57.76 30.23 14.63z" fill="url(#linear-gradient-2)"/><g fill="#fff"><path d="m297.74 183.69a19.47 19.47 0 0 0 7.95 15.73 84.32 84.32 0 0 1 34.67 69.91c-.91 44.64-38.94 82.21-83.59 82.61a84.35 84.35 0 0 1 -50.42-152.55 19.42 19.42 0 0 0 7.91-15.7c0-16.06-18.25-25.2-31.19-15.7a123.43 123.43 0 1 0 145.65-.16c-12.87-9.39-30.98-.07-30.98 15.86z"/><rect height="142.95" rx="19.08" width="42.98" x="234.51" y="121"/></g></g></g></svg>